<svg width="853" height="852" viewBox="0 0 853 852" fill="none" xmlns="http://www.w3.org/2000/svg">
<g filter="url(#filter0_d_381_2)">
<rect width="844" height="844" transform="translate(4.6322)" fill="#002AFC"/>
<path d="M432.339 564.532C396.306 564.532 366.203 556.139 342.031 539.353C317.859 522.567 299.619 499.739 287.309 470.867C275.223 441.995 269.18 409.43 269.18 373.173C269.18 336.915 275.223 304.351 287.309 275.479C299.395 246.607 317.188 223.778 340.688 206.992C364.189 190.206 393.172 181.813 427.639 181.813C462.33 181.813 492.545 190.095 518.283 206.657C544.022 223.219 563.941 245.936 578.041 274.807C592.365 303.455 599.527 336.244 599.527 373.173C599.527 409.43 592.477 441.995 578.377 470.867C564.5 499.739 545.029 522.567 519.962 539.353C494.895 556.139 465.687 564.532 432.339 564.532ZM253.737 715.605V191.885H334.31V440.316H345.724V715.605H253.737ZM417.568 483.288C437.263 483.288 453.378 478.364 465.911 468.517C478.445 458.669 487.733 445.464 493.776 428.902C499.819 412.116 502.84 393.54 502.84 373.173C502.84 353.03 499.707 334.677 493.44 318.115C487.173 301.329 477.438 288.012 464.233 278.165C451.251 268.093 434.577 263.057 414.211 263.057C395.187 263.057 379.744 267.645 367.881 276.822C356.243 285.998 347.738 298.867 342.367 315.429C336.995 331.991 334.31 351.239 334.31 373.173C334.31 395.106 336.995 414.354 342.367 430.916C347.738 447.478 356.467 460.348 368.553 469.524C380.863 478.7 397.201 483.288 417.568 483.288Z" fill="white"/>
<rect width="205.974" height="30.5" transform="matrix(1 0 0 -1 253.737 158.895)" fill="#FFCD00"/>
</g>
<defs>
<filter id="filter0_d_381_2" x="0.632202" y="0" width="852" height="852" filterUnits="userSpaceOnUse" color-interpolation-filters="sRGB">
<feFlood flood-opacity="0" result="BackgroundImageFix"/>
<feColorMatrix in="SourceAlpha" type="matrix" values="0 0 0 0 0 0 0 0 0 0 0 0 0 0 0 0 0 0 127 0" result="hardAlpha"/>
<feOffset dy="4"/>
<feGaussianBlur stdDeviation="2"/>
<feComposite in2="hardAlpha" operator="out"/>
<feColorMatrix type="matrix" values="0 0 0 0 0 0 0 0 0 0 0 0 0 0 0 0 0 0 0.25 0"/>
<feBlend mode="normal" in2="BackgroundImageFix" result="effect1_dropShadow_381_2"/>
<feBlend mode="normal" in="SourceGraphic" in2="effect1_dropShadow_381_2" result="shape"/>
</filter>
</defs>
</svg>
