<svg width="489" height="280" viewBox="0 0 489 280" fill="none" xmlns="http://www.w3.org/2000/svg">
<rect width="205.974" height="30.5" transform="matrix(1 0 0 -1 0.686203 31.1851)" fill="#FFCD00"/>
<path d="M417.851 279.315C408.195 279.315 400.385 277.138 394.421 272.783C388.504 268.381 384.907 262.181 383.629 254.181L403.367 251.199C404.172 254.797 405.947 257.613 408.692 259.648C411.485 261.684 415.011 262.701 419.271 262.701C422.774 262.701 425.472 262.039 427.365 260.713C429.258 259.341 430.205 257.447 430.205 255.033C430.205 253.519 429.826 252.312 429.069 251.412C428.312 250.466 426.608 249.543 423.957 248.643C421.354 247.744 417.283 246.561 411.745 245.093C405.497 243.484 400.503 241.685 396.764 239.697C393.025 237.709 390.327 235.343 388.67 232.597C387.013 229.805 386.185 226.444 386.185 222.515C386.185 217.593 387.439 213.333 389.948 209.735C392.457 206.091 395.983 203.298 400.527 201.357C405.118 199.369 410.514 198.375 416.715 198.375C422.726 198.375 428.051 199.298 432.69 201.144C437.329 202.99 441.068 205.617 443.908 209.025C446.795 212.433 448.57 216.457 449.233 221.095L429.495 224.645C429.164 221.805 427.933 219.557 425.803 217.9C423.673 216.244 420.786 215.273 417.141 214.989C413.591 214.753 410.727 215.226 408.55 216.409C406.42 217.593 405.355 219.297 405.355 221.521C405.355 222.847 405.805 223.959 406.704 224.858C407.651 225.758 409.568 226.681 412.455 227.627C415.39 228.574 419.839 229.805 425.803 231.319C431.625 232.834 436.287 234.609 439.79 236.644C443.34 238.632 445.92 241.046 447.529 243.886C449.138 246.679 449.943 250.063 449.943 254.039C449.943 261.897 447.103 268.074 441.423 272.57C435.743 277.067 427.886 279.315 417.851 279.315Z" fill="white"/>
<path d="M342.083 277.185V200.505H359.123V219.249L357.277 216.835C358.271 214.184 359.596 211.77 361.253 209.593C362.91 207.416 364.945 205.617 367.359 204.197C369.205 203.061 371.217 202.185 373.394 201.57C375.571 200.907 377.82 200.505 380.139 200.363C382.458 200.174 384.778 200.221 387.097 200.505V218.539C384.967 217.876 382.482 217.663 379.642 217.9C376.849 218.089 374.317 218.728 372.045 219.817C369.773 220.858 367.856 222.255 366.294 224.006C364.732 225.71 363.549 227.745 362.744 230.112C361.939 232.431 361.537 235.058 361.537 237.993V277.185H342.083Z" fill="white"/>
<path d="M301.272 279.315C293.415 279.315 286.481 277.635 280.469 274.274C274.505 270.866 269.819 266.204 266.411 260.287C263.051 254.323 261.37 247.507 261.37 239.839C261.37 231.461 263.027 224.172 266.34 217.971C269.654 211.771 274.221 206.966 280.043 203.558C285.865 200.103 292.563 198.375 300.136 198.375C308.183 198.375 315.023 200.269 320.655 204.055C326.288 207.842 330.453 213.167 333.151 220.03C335.849 226.894 336.796 234.964 335.991 244.241H316.892V237.141C316.892 229.331 315.638 223.722 313.129 220.314C310.668 216.859 306.621 215.131 300.988 215.131C294.409 215.131 289.557 217.143 286.433 221.166C283.357 225.142 281.818 231.035 281.818 238.845C281.818 245.993 283.357 251.531 286.433 255.459C289.557 259.341 294.125 261.281 300.136 261.281C303.923 261.281 307.165 260.453 309.863 258.796C312.561 257.14 314.62 254.749 316.04 251.625L335.352 257.163C332.465 264.169 327.897 269.612 321.649 273.493C315.449 277.375 308.656 279.315 301.272 279.315ZM275.854 244.241V229.899H326.69V244.241H275.854Z" fill="white"/>
<path d="M198.466 277.185L198.608 174.945H218.204V237.425L244.19 200.505H268.046L240.356 238.845L269.892 277.185H244.758L218.204 240.265V277.185H198.466Z" fill="white"/>
<path d="M147.06 279.315C141.57 279.315 136.907 278.274 133.073 276.191C129.287 274.061 126.399 271.245 124.411 267.742C122.471 264.192 121.5 260.287 121.5 256.027C121.5 252.477 122.045 249.235 123.133 246.3C124.222 243.366 125.973 240.786 128.387 238.561C130.849 236.289 134.138 234.396 138.256 232.881C141.096 231.84 144.481 230.917 148.409 230.112C152.338 229.308 156.787 228.55 161.757 227.84C166.727 227.083 172.194 226.255 178.158 225.355L171.2 229.189C171.2 224.645 170.112 221.308 167.934 219.178C165.757 217.048 162.112 215.983 157 215.983C154.16 215.983 151.202 216.67 148.125 218.042C145.049 219.415 142.895 221.853 141.664 225.355L124.198 219.817C126.139 213.475 129.784 208.315 135.132 204.339C140.481 200.363 147.77 198.375 157 198.375C163.769 198.375 169.78 199.417 175.034 201.499C180.288 203.582 184.264 207.179 186.962 212.291C188.477 215.131 189.376 217.971 189.66 220.811C189.944 223.651 190.086 226.823 190.086 230.325V277.185H173.188V261.423L175.602 264.689C171.863 269.849 167.816 273.588 163.461 275.907C159.154 278.179 153.687 279.315 147.06 279.315ZM151.178 264.121C154.728 264.121 157.71 263.506 160.124 262.275C162.586 260.997 164.526 259.554 165.946 257.944C167.414 256.335 168.408 254.986 168.928 253.897C169.922 251.815 170.49 249.401 170.632 246.655C170.822 243.863 170.916 241.543 170.916 239.697L176.596 241.117C170.869 242.064 166.23 242.869 162.68 243.531C159.13 244.147 156.267 244.715 154.089 245.235C151.912 245.756 149.995 246.324 148.338 246.939C146.445 247.697 144.907 248.525 143.723 249.424C142.587 250.276 141.735 251.223 141.167 252.264C140.647 253.306 140.386 254.465 140.386 255.743C140.386 257.495 140.812 259.009 141.664 260.287C142.564 261.518 143.818 262.465 145.427 263.127C147.037 263.79 148.954 264.121 151.178 264.121Z" fill="white"/>
<path d="M97.9262 277.185V231.887C97.9262 226.823 96.7192 222.894 94.3052 220.101C91.9385 217.261 88.6489 215.841 84.4362 215.841C81.7382 215.841 79.3952 216.48 77.4072 217.758C75.4192 218.989 73.8572 220.74 72.7212 223.012C71.6325 225.237 71.0882 227.817 71.0882 230.751L62.9942 225.355C62.9942 220.101 64.2249 215.463 66.6862 211.439C69.1949 207.416 72.5319 204.292 76.6972 202.067C80.9099 199.795 85.5722 198.659 90.6842 198.659C99.4409 198.659 106.044 201.263 110.493 206.469C114.99 211.629 117.238 218.397 117.238 226.775V277.185H97.9262ZM5.48421 277.185V200.505H22.5242V225.923H24.9382V277.185H5.48421ZM51.7762 277.185V231.887C51.7762 226.823 50.5692 222.894 48.1552 220.101C45.7885 217.261 42.4989 215.841 38.2862 215.841C34.2629 215.841 31.0205 217.238 28.5592 220.03C26.1452 222.776 24.9382 226.349 24.9382 230.751L16.8442 225.071C16.8442 220.054 18.0985 215.557 20.6072 211.581C23.1159 207.605 26.4765 204.458 30.6892 202.138C34.9492 199.819 39.7062 198.659 44.9602 198.659C50.9715 198.659 55.8942 199.937 59.7282 202.493C63.6095 205.049 66.4732 208.457 68.3192 212.717C70.1652 216.977 71.0882 221.663 71.0882 226.775V277.185H51.7762Z" fill="white"/>
<path d="M488.578 145.185C483.277 146.179 478.07 146.605 472.958 146.463C467.894 146.368 463.35 145.493 459.326 143.836C455.35 142.132 452.321 139.41 450.238 135.671C448.345 132.168 447.351 128.618 447.256 125.021C447.162 121.376 447.114 117.258 447.114 112.667V47.2051H466.426V111.531C466.426 114.513 466.45 117.211 466.497 119.625C466.592 121.992 467.089 123.885 467.988 125.305C469.692 128.003 472.414 129.47 476.153 129.707C479.893 129.944 484.034 129.754 488.578 129.139V145.185ZM434.05 83.4151V68.5051H488.578V83.4151H434.05Z" fill="white"/>
<path d="M403.519 147.315C395.567 147.315 388.751 145.54 383.071 141.99C377.391 138.44 373.036 133.612 370.007 127.506C366.978 121.4 365.463 114.513 365.463 106.845C365.463 99.0828 367.025 92.1485 370.149 86.0425C373.32 79.9365 377.77 75.1322 383.497 71.6295C389.224 68.1268 395.993 66.3755 403.803 66.3755C412.844 66.3755 420.417 68.6712 426.523 73.2625C432.676 77.8065 436.605 84.0308 438.309 91.9355L418.997 97.0475C417.861 93.0715 415.873 89.9712 413.033 87.7465C410.24 85.5218 407.069 84.4095 403.519 84.4095C399.448 84.4095 396.111 85.4035 393.508 87.3915C390.905 89.3322 388.988 92.0065 387.757 95.4145C386.526 98.7752 385.911 102.585 385.911 106.845C385.911 113.519 387.378 118.939 390.313 123.104C393.295 127.222 397.697 129.281 403.519 129.281C407.874 129.281 411.187 128.287 413.459 126.299C415.731 124.311 417.435 121.471 418.571 117.779L438.309 121.897C436.132 130.039 432.014 136.31 425.955 140.712C419.896 145.114 412.418 147.315 403.519 147.315Z" fill="white"/>
<path d="M317.93 147.457C311.918 147.457 307.019 146.44 303.233 144.404C299.446 142.369 296.488 139.789 294.358 136.665C292.275 133.541 290.784 130.299 289.885 126.938C288.985 123.53 288.441 120.43 288.252 117.637C288.062 114.845 287.968 112.809 287.968 111.531V68.5054H307.564V104.715C307.564 106.467 307.658 108.715 307.848 111.46C308.037 114.158 308.629 116.88 309.623 119.625C310.617 122.371 312.226 124.666 314.451 126.512C316.723 128.358 319.918 129.281 324.036 129.281C325.692 129.281 327.467 129.021 329.361 128.5C331.254 127.98 333.029 126.986 334.686 125.518C336.342 124.004 337.691 121.803 338.733 118.915C339.821 115.981 340.366 112.147 340.366 107.413L351.442 112.667C351.442 118.726 350.211 124.406 347.75 129.707C345.288 135.009 341.573 139.292 336.603 142.558C331.68 145.824 325.456 147.457 317.93 147.457ZM342.78 145.185V119.767H340.366V68.5054H359.82V145.185H342.78Z" fill="white"/>
<path d="M241.676 147.315C234.623 147.315 228.446 145.54 223.145 141.99C217.843 138.44 213.702 133.612 210.72 127.506C207.785 121.4 206.318 114.513 206.318 106.845C206.318 99.0353 207.809 92.101 210.791 86.0423C213.82 79.9363 218.056 75.132 223.5 71.6293C228.943 68.1266 235.333 66.3753 242.67 66.3753C249.959 66.3753 256.089 68.1503 261.059 71.7003C266.029 75.2503 269.792 80.0783 272.348 86.1843C274.904 92.2903 276.182 99.1773 276.182 106.845C276.182 114.513 274.88 121.4 272.277 127.506C269.721 133.612 265.887 138.44 260.775 141.99C255.663 145.54 249.296 147.315 241.676 147.315ZM244.8 130.133C249.107 130.133 252.539 129.163 255.095 127.222C257.698 125.282 259.568 122.56 260.704 119.057C261.84 115.555 262.408 111.484 262.408 106.845C262.408 102.207 261.84 98.136 260.704 94.6333C259.568 91.1306 257.745 88.409 255.237 86.4683C252.775 84.5276 249.533 83.5573 245.51 83.5573C241.202 83.5573 237.652 84.6223 234.86 86.7523C232.114 88.835 230.079 91.6513 228.754 95.2013C227.428 98.704 226.766 102.585 226.766 106.845C226.766 111.153 227.405 115.081 228.683 118.631C229.961 122.134 231.925 124.927 234.576 127.009C237.226 129.092 240.634 130.133 244.8 130.133ZM262.408 145.185V92.6453H259.994V42.9453H279.448V145.185H262.408Z" fill="white"/>
<path d="M165.996 147.315C158.281 147.315 151.512 145.588 145.69 142.132C139.868 138.677 135.324 133.92 132.058 127.861C128.84 121.755 127.23 114.75 127.23 106.845C127.23 98.8461 128.887 91.8172 132.2 85.7585C135.514 79.6525 140.081 74.8955 145.903 71.4875C151.725 68.0795 158.423 66.3755 165.996 66.3755C173.712 66.3755 180.48 68.1032 186.302 71.5585C192.172 75.0138 196.739 79.7945 200.005 85.9005C203.271 91.9592 204.904 98.9408 204.904 106.845C204.904 114.797 203.248 121.826 199.934 127.932C196.668 133.991 192.101 138.748 186.231 142.203C180.409 145.611 173.664 147.315 165.996 147.315ZM165.996 129.281C172.197 129.281 176.812 127.199 179.841 123.033C182.918 118.821 184.456 113.425 184.456 106.845C184.456 100.029 182.894 94.5862 179.77 90.5155C176.694 86.4448 172.102 84.4095 165.996 84.4095C161.784 84.4095 158.328 85.3562 155.63 87.2495C152.932 89.1428 150.921 91.7698 149.595 95.1305C148.317 98.4912 147.678 102.396 147.678 106.845C147.678 113.709 149.217 119.176 152.293 123.246C155.417 127.27 159.985 129.281 165.996 129.281Z" fill="white"/>
<path d="M84.2975 145.185V68.5051H101.338V87.2491L99.4915 84.8351C100.486 82.1844 101.811 79.7704 103.468 77.5931C105.124 75.4158 107.16 73.6171 109.574 72.1971C111.42 71.0611 113.431 70.1854 115.609 69.5701C117.786 68.9074 120.034 68.5051 122.354 68.3631C124.673 68.1738 126.992 68.2211 129.312 68.5051V86.5391C127.182 85.8764 124.697 85.6634 121.857 85.9001C119.064 86.0894 116.532 86.7284 114.26 87.8171C111.988 88.8584 110.071 90.2548 108.509 92.0061C106.947 93.7101 105.763 95.7454 104.959 98.1121C104.154 100.431 103.752 103.058 103.752 105.993V145.185H84.2975Z" fill="white"/>
<path d="M43.2562 147.315C35.6355 147.315 29.2692 145.54 24.1572 141.99C19.0452 138.44 15.1875 133.612 12.5842 127.506C10.0282 121.4 8.75021 114.513 8.75021 106.845C8.75021 99.1775 10.0282 92.2905 12.5842 86.1845C15.1402 80.0785 18.9032 75.2505 23.8732 71.7005C28.8432 68.1505 34.9729 66.3755 42.2622 66.3755C49.5989 66.3755 55.9889 68.1268 61.4322 71.6295C66.8755 75.1322 71.0882 79.9365 74.0702 86.0425C77.0995 92.1012 78.6142 99.0355 78.6142 106.845C78.6142 114.513 77.1232 121.4 74.1412 127.506C71.2065 133.612 67.0885 138.44 61.7872 141.99C56.4859 145.54 50.3089 147.315 43.2562 147.315ZM5.48421 179.265V68.5055H22.5242V121.045H24.9382V179.265H5.48421ZM40.1322 130.133C44.2975 130.133 47.7055 129.092 50.3562 127.009C53.0069 124.927 54.9712 122.134 56.2492 118.631C57.5272 115.081 58.1662 111.153 58.1662 106.845C58.1662 102.585 57.5035 98.7042 56.1782 95.2015C54.8529 91.6515 52.7939 88.8352 50.0012 86.7525C47.2559 84.6225 43.7295 83.5575 39.4222 83.5575C35.3989 83.5575 32.1329 84.5278 29.6242 86.4685C27.1629 88.4092 25.3642 91.1308 24.2282 94.6335C23.0922 98.1362 22.5242 102.207 22.5242 106.845C22.5242 111.484 23.0922 115.555 24.2282 119.057C25.3642 122.56 27.2102 125.282 29.7662 127.222C32.3695 129.163 35.8249 130.133 40.1322 130.133Z" fill="white"/>
</svg>
